<svg width="14" height="13" viewBox="0 0 14 13" fill="none" xmlns="http://www.w3.org/2000/svg">
<path d="M7 12.6C8.48521 12.6 9.90959 12.01 10.9598 10.9598C12.01 9.90959 12.6 8.48521 12.6 7C12.6 5.51479 12.01 4.0904 10.9598 3.0402C9.90959 1.99 8.48521 1.4 7 1.4C5.51479 1.4 4.09041 1.99 3.0402 3.0402C1.99 4.0904 1.4 5.51479 1.4 7C1.4 8.48521 1.99 9.90959 3.0402 10.9598C4.09041 12.01 5.51479 12.6 7 12.6Z" fill="white"/>
<path d="M2.1 0L0 2.1L2.1 0Z" fill="white"/>
<path d="M14 2.1L11.9 0L14 2.1Z" fill="white"/>
<path d="M2.8 11.2L1.4 12.6L2.8 11.2Z" fill="white"/>
<path d="M11.2 11.2L12.6 12.6L11.2 11.2Z" fill="white"/>
<path d="M7 4.2V7L8.4 8.4" fill="white"/>
<path d="M2.1 0L0 2.1M14 2.1L11.9 0M2.8 11.2L1.4 12.6M11.2 11.2L12.6 12.6M7 4.2V7L8.4 8.4M7 12.6C8.48521 12.6 9.90959 12.01 10.9598 10.9598C12.01 9.90959 12.6 8.48521 12.6 7C12.6 5.51479 12.01 4.09041 10.9598 3.0402C9.90959 1.99 8.48521 1.4 7 1.4C5.51479 1.4 4.09041 1.99 3.0402 3.0402C1.99 4.09041 1.4 5.51479 1.4 7C1.4 8.48521 1.99 9.90959 3.0402 10.9598C4.09041 12.01 5.51479 12.6 7 12.6Z" stroke="#929292" stroke-width="1.33826" stroke-linecap="round" stroke-linejoin="round"/>
</svg>