<svg width="10" height="9" viewBox="0 0 10 9" fill="none" xmlns="http://www.w3.org/2000/svg">
<path d="M1.40517 0.56897L0 1.97414M9.36781 1.97414L7.96264 0.56897M1.87356 8.06322L0.936781 9M7.49425 8.06322L8.43103 9M4.68391 3.37931V5.25288L5.62069 6.18966M4.68391 9C5.67771 9 6.6308 8.60522 7.33352 7.90249C8.03625 7.19977 8.43103 6.24667 8.43103 5.25288C8.43103 4.25908 8.03625 3.30598 7.33352 2.60326C6.6308 1.90054 5.67771 1.50575 4.68391 1.50575C3.69011 1.50575 2.73701 1.90054 2.03429 2.60326C1.33157 3.30598 0.936781 4.25908 0.936781 5.25288C0.936781 6.24667 1.33157 7.19977 2.03429 7.90249C2.73701 8.60522 3.69011 9 4.68391 9Z" stroke="black" stroke-linecap="round" stroke-linejoin="round"/>
</svg>