<svg width="16" height="21" viewBox="0 0 16 21" fill="none" xmlns="http://www.w3.org/2000/svg">
<path d="M10 1.01953V5.15007C10 5.71012 10 5.99015 10.109 6.20406C10.2049 6.39222 10.3578 6.5452 10.546 6.64108C10.7599 6.75007 11.0399 6.75007 11.6 6.75007H15.7305M12 11.75H4M12 15.75H4M6 7.75H4M10 0.75H4.8C3.11984 0.75 2.27976 0.75 1.63803 1.07698C1.07354 1.3646 0.614601 1.82354 0.32698 2.38803C0 3.02976 0 3.86984 0 5.55V15.95C0 17.6302 0 18.4702 0.32698 19.112C0.614601 19.6765 1.07354 20.1354 1.63803 20.423C2.27976 20.75 3.11984 20.75 4.8 20.75H11.2C12.8802 20.75 13.7202 20.75 14.362 20.423C14.9265 20.1354 15.3854 19.6765 15.673 19.112C16 18.4702 16 17.6302 16 15.95V6.75L10 0.75Z" stroke="#CCCCCC" stroke-width="2" stroke-linecap="round" stroke-linejoin="round"/>
</svg>