<svg width="20" height="21" viewBox="0 0 20 21" fill="none" xmlns="http://www.w3.org/2000/svg">
<path d="M19.2104 14.6249C18.5742 16.1294 17.5792 17.4551 16.3123 18.4862C15.0454 19.5173 13.5452 20.2224 11.9428 20.5397C10.3405 20.8571 8.68483 20.7771 7.12055 20.3067C5.55627 19.8364 4.13103 18.99 2.96942 17.8416C1.80782 16.6932 0.945217 15.2777 0.457038 13.7189C-0.0311409 12.1601 -0.130035 10.5054 0.169001 8.89957C0.468037 7.29371 1.1559 5.78556 2.17245 4.50696C3.189 3.22836 4.50329 2.21825 6.0004 1.56493M19.2392 6.9081C19.6395 7.87456 19.8851 8.8963 19.9684 9.93578C19.989 10.1926 19.9993 10.321 19.9483 10.4366C19.9057 10.5333 19.8213 10.6247 19.7284 10.6749C19.6172 10.7349 19.4783 10.7349 19.2004 10.7349H10.8004C10.5204 10.7349 10.3804 10.7349 10.2734 10.6804C10.1793 10.6325 10.1028 10.556 10.0549 10.4619C10.0004 10.355 10.0004 10.215 10.0004 9.93493V1.53493C10.0004 1.25707 10.0004 1.11813 10.0605 1.00692C10.1107 0.914012 10.2021 0.829622 10.2987 0.787026C10.4144 0.736034 10.5428 0.746328 10.7996 0.766916C11.839 0.850253 12.8608 1.09582 13.8272 1.49614C15.0405 1.99868 16.1429 2.73528 17.0715 3.66387C18.0001 4.59245 18.7367 5.69484 19.2392 6.9081Z" stroke="#CCCCCC" stroke-width="2" stroke-linecap="round" stroke-linejoin="round"/>
</svg>