<svg width="18" height="19" viewBox="0 0 18 19" fill="none" xmlns="http://www.w3.org/2000/svg">
<path d="M5 7.23026H9M5 10.7303H12M9 18.7303C13.9706 18.7303 18 14.7008 18 9.73026C18 4.75969 13.9706 0.730255 9 0.730255C4.02944 0.730255 0 4.75969 0 9.73026C0 10.9274 0.233736 12.07 0.658062 13.1148C0.739274 13.3147 0.779879 13.4147 0.797995 13.4955C0.815716 13.5746 0.822196 13.6331 0.822207 13.7141C0.822217 13.797 0.807181 13.8872 0.777108 14.0676L0.184127 17.6255C0.12203 17.9981 0.0909822 18.1844 0.14876 18.3191C0.19933 18.437 0.293283 18.5309 0.411184 18.5815C0.545893 18.6393 0.732182 18.6082 1.10476 18.5461L4.66265 17.9531C4.84309 17.9231 4.9333 17.908 5.01613 17.908C5.09715 17.9081 5.15566 17.9145 5.23472 17.9323C5.31554 17.9504 5.41552 17.991 5.61549 18.0722C6.6603 18.4965 7.80286 18.7303 9 18.7303Z" stroke="#CCCCCC" stroke-width="2" stroke-linecap="round" stroke-linejoin="round"/>
</svg>